<svg width="519" height="271" viewBox="0 0 519 271" xmlns="http://www.w3.org/2000/svg">
  <style>
    #carrot {
      transform: translateX(0);
    }
    @media all and (max-width: 400px) {
      #wunder { display: none; }
      #carrot {
        transform: translate(-1000%,-200px) scale(2.0);
      }
    }
  </style>
  <title>Slice 1</title><defs><linearGradient x1="14.666%" y1="12.079%" x2="85.339%" y2="70.652%" id="a"><stop stop-color="#F7A941" offset="0%"/><stop stop-color="#F59E39" offset="14.96%"/><stop stop-color="#F28C2E" offset="43.88%"/><stop stop-color="#F08128" offset="72.44%"/><stop stop-color="#F07E26" offset="100%"/></linearGradient></defs><g fill="none" fill-rule="evenodd"><path d="M427 25.9c-.1 1.2-.2 2.4-.2 3.6 0 10.4 3.8 20.5 11.4 28.1 6.4 6.4 14.6 10.1 23.2 11.1-6.4-8.5-10.1-18.9-10.1-29.7 0-2.4.2-4.9.6-7.3-6.4-4-13.8-6-21.3-6-1.1 0-2.4.1-3.6.2zM458.5 31.4c-.5 2.6-.7 5.1-.7 7.6 0 10.6 3.9 20.7 10.6 28.9-.1-1-.1-2-.1-3 0-11.4 4.2-22.6 12.6-31 3.3-3.3 6.9-5.9 10.9-7.9-.8-9.6-4.7-18.6-10.9-26-11.5 6.7-20 17.8-22.4 31.4z" fill="#95C11F"/><path d="M518.3 25.6c-1.2-.1-2.4-.2-3.6-.2-10.4 0-20.5 3.8-28.1 11.4-7.6 7.6-11.4 17.7-11.4 28.1 0 1.2 0 2.4.2 3.7 1.2.1 2.4.2 3.7.2 10.4 0 20.5-3.8 28.1-11.4 7.6-7.6 11.4-17.7 11.4-28.1-.2-1.3-.2-2.5-.3-3.7z" fill="#95C11F"/><path d="M78.9 86.3c-8.4-7.5-19.4-12.1-31.5-12.1C21.3 74.2.2 95.3.2 121.4c0 10.7 3.6 20.5 9.6 28.4 1.2 1.6 2.5 3.2 3.9 4.6l33.7 33.7 33.7-33.7c8.3-8.5 13.5-20.2 13.5-33 0-14-6.1-26.5-15.7-35.1z" fill="url(#a)" transform="translate(424)"/><path d="M42.6 128.7l-10.7 36.9c-.9 3.2-3.9 5.5-7.2 5.5-3.3 0-6.2-2.2-7.2-5.3l-17.2-54c-.3-.6-.3-1.3-.3-1.9 0-3.5 2.7-6.7 6.6-6.7 2.8 0 5.7 1.8 6.4 4.6L24.5 147l10.8-38.3c.9-3.2 3.9-5.5 7.2-5.5 3.3 0 6.5 3 7.1 5.3l10.8 38.6 11.5-39.2c.8-2.8 3.6-4.6 6.4-4.6 3.5 0 6.6 2.8 6.6 6.7 0 .6 0 1.3-.3 1.9l-17.2 53.9c-1 3.2-3.9 5.4-7.1 5.4-3.4 0-6.3-2.3-7.2-5.4l-10.5-37.1zM132.2 109.9c0-3.7 2.8-6.7 6.6-6.7 3.7 0 6.7 3 6.7 6.7V160c0 3.6-2.3 6.7-5.7 7.9-6.3 2.2-13.2 3.4-20.3 3.4-7.5 0-14.2-2.2-19-7-4.6-4.6-6.8-11.4-6.8-19V110c0-3.7 3-6.7 6.7-6.7 3.6 0 6.6 3 6.6 6.7v36.4c0 8 4.6 12.5 12.5 12.5 4.4 0 8.6-.5 12.6-1.5v-47.5h.1zM197.2 127.9c0-7.9-4.6-12.5-12.6-12.5-4.3 0-8.5.6-12.5 1.7v47.3c0 3.7-3 6.7-6.6 6.7-3.7 0-6.7-3-6.7-6.7v-50c0-3.6 2.2-6.7 5.7-7.9 6.3-2.2 13.2-3.4 20.1-3.4 7.6 0 14.1 2.5 18.7 7.2 4.6 4.6 7.2 11.1 7.2 18.6v35.5c0 3.7-3 6.7-6.7 6.7s-6.6-3-6.6-6.7v-36.5zM221.3 129c0-7.5 2.3-14.1 7-18.7 4.8-4.8 11.4-7.1 18.8-7.1 4.4 0 9.2 1.5 12.6 3.4V84.9c0-3.7 2.8-6.7 6.6-6.7 3.7 0 6.7 3 6.7 6.7V160c0 3.6-2.3 6.7-5.7 7.9-6.4 2.2-13.3 3.4-20.3 3.4-7.5 0-13.9-2.5-18.7-7.2-4.6-4.6-7.1-11.1-7.1-18.7V129h.1zm38.4-8.9c-3.5-3-8-4.6-12.6-4.6-7.9 0-12.5 4.6-12.5 12.5v18.4c0 8 4.6 12.5 12.5 12.5 4.4 0 8.6-.5 12.6-1.7v-37.1zM297.7 143.4c0 5.3.9 8.8 2.6 11.1 2.2 2.8 5.5 4.4 9.9 4.4 4.9 0 9.5-1.4 13.9-3.4.9-.4 1.8-.6 2.7-.6 3.2 0 6.3 2.7 6.3 6.1 0 2.5-1 4.6-3.4 5.8-6.2 3-12.8 4.4-19.6 4.4-7.5 0-13.9-2.5-18.7-7.2-4.6-4.6-7.1-11.1-7.1-18.7V129c0-7.5 2.5-13.9 7.1-18.6 4.8-4.8 11.2-7.2 18.7-7.2 7.6 0 14.1 2.5 18.7 7.2 4.6 4.6 7.2 11.1 7.2 18.6v6.1c0 4.6-3.7 8.4-8.4 8.4h-29.9v-.1zm25.2-12.2c0-10.7-4.4-15.7-12.6-15.7-8.1 0-12.5 4.9-12.5 15.7h25.1zM346.6 122.4c0-11 8.3-19.2 19.2-19.2 3.2 0 6.4.4 9.7 1 3.1.6 5.3 3.2 5.3 6.3 0 3.5-2.6 6.2-6.3 6.2-.8 0-1.2 0-2.2-.3-2.1-.5-4.4-1-6.4-1-3.2 0-5.9 2.7-5.9 5.9v43.1c0 3.7-3 6.7-6.6 6.7-3.7 0-6.7-3-6.7-6.7v-42h-.1z" fill="#4C565C"/><path d="M198.7 196.1h182.7v74.6H198.7z"/><path d="M235.576 221.833c0 1.073.888 1.96 1.96 1.96 1.037 0 1.962-.887 1.962-1.96v-8.695h4.662c4.736 0 7.844-3.07 7.844-7.733 0-4.736-3.22-7.918-7.844-7.918h-6.18c-1.33 0-2.404 1.073-2.404 2.368v21.978zm3.922-12.432v-8.176h4.662c2.553 0 3.922 1.59 3.922 4.18 0 3.22-2.072 3.997-3.922 3.997h-4.662zm16.02 12.47c0 1.073.852 1.924 1.925 1.924 1.036 0 1.887-.85 1.887-1.924v-12.358c0-.925.777-1.702 1.702-1.702.592 0 1.258.148 1.85.296.296.074.407.074.63.074 1.072 0 1.812-.777 1.812-1.776 0-.888-.63-1.628-1.517-1.813-.925-.184-1.85-.295-2.775-.295-3.145 0-5.513 2.368-5.513 5.513v12.062zm16.947-22.607c0-1.184-.962-2.146-2.146-2.146-1.185 0-2.147.962-2.147 2.146s.962 2.146 2.146 2.146c1.183 0 2.145-.963 2.145-2.147zm-4.07 22.607c0 1.073.888 1.924 1.924 1.924 1.072 0 1.886-.85 1.886-1.924v-15.65c0-1.074-.814-1.925-1.887-1.925-1.037 0-1.925.85-1.925 1.924v15.65zm19.758 0c0 1.073.814 1.924 1.887 1.924s1.924-.85 1.924-1.924v-10.175c0-2.146-.74-3.996-2.072-5.328-1.332-1.37-3.182-2.072-5.365-2.072-1.998 0-3.96.333-5.772.962-1 .333-1.628 1.22-1.628 2.257v14.356c0 1.073.85 1.924 1.924 1.924 1.037 0 1.888-.85 1.888-1.924v-13.58c1.147-.295 2.368-.48 3.59-.48 2.293 0 3.625 1.332 3.625 3.59v10.47zm7.66-5.513c0 2.183.702 4.033 2.034 5.365 1.37 1.37 3.22 2.072 5.365 2.072 1.813 0 3.515-.407 5.106-1.184.703-.333 1.11-1 1.11-1.702 0-1.036-.85-1.776-1.776-1.776-.296 0-.555.037-.814.185-1.073.518-2.405.925-3.626.925-2.257 0-3.59-1.295-3.59-3.59V211.4c0-2.258 1.333-3.59 3.59-3.59 1.22 0 2.442.407 3.515.888.26.11.555.222.888.222 1.036 0 1.813-.814 1.813-1.74 0-.702-.37-1.368-1.073-1.7-1.59-.778-3.33-1.185-5.143-1.185-2.146 0-3.996.703-5.365 2.072-1.332 1.332-2.035 3.182-2.035 5.328v4.662zm21.237-17.094c0-1.184-.962-2.146-2.146-2.146s-2.146.962-2.146 2.146.962 2.146 2.146 2.146 2.146-.963 2.146-2.147zm-4.07 22.607c0 1.073.888 1.924 1.924 1.924 1.073 0 1.887-.85 1.887-1.924v-15.65c0-1.074-.813-1.925-1.886-1.925-1.036 0-1.924.85-1.924 1.924v15.65zm8.732 7.88c0 1.074.85 1.925 1.924 1.925 1.036 0 1.887-.85 1.887-1.924v-6.918c1.147.518 2.627.962 3.848.962 2.184 0 3.812-.63 5.144-1.998 1.332-1.332 2.035-3.256 2.035-5.44v-4.66c0-2.147-.74-3.997-2.073-5.33-1.332-1.368-3.182-2.07-5.365-2.07-1.998 0-3.922.37-5.772.96-.962.297-1.628 1.222-1.628 2.258v22.237zm11.026-13.06c0 2.294-1.332 3.59-3.626 3.59-1.332 0-2.553-.445-3.59-1.296v-10.73c1.185-.296 2.37-.444 3.59-.444 2.294 0 3.626 1.332 3.626 3.59v5.29zm8.177 5.18c0 1.073.85 1.924 1.924 1.924 1.035 0 1.886-.85 1.886-1.924v-22.83c0-1.072-.85-1.923-1.887-1.923-1.074 0-1.925.85-1.925 1.924v22.83zm20.424-6.03c1.33 0 2.404-1.074 2.404-2.406v-1.74c0-2.145-.74-3.995-2.072-5.327-1.332-1.37-3.182-2.072-5.365-2.072-2.146 0-3.996.703-5.365 2.072-1.332 1.332-2.035 3.182-2.035 5.328v4.662c0 2.183.703 4.033 2.035 5.365 1.37 1.37 3.22 2.072 5.365 2.072 1.96 0 3.848-.407 5.624-1.258.667-.333.963-.962.963-1.665 0-.96-.888-1.738-1.813-1.738-.26 0-.518.074-.777.185-1.258.555-2.59.962-3.996.962-1.258 0-2.22-.445-2.85-1.26-.48-.665-.74-1.664-.74-3.18h8.622zm-8.622-3.516c0-3.108 1.258-4.514 3.59-4.514 2.367 0 3.625 1.443 3.625 4.514h-7.215zm20.83 3.737c1.37.482 2.48.926 2.48 2.295 0 1.258-.925 1.924-2.7 1.924-1.63 0-2.85-.334-3.85-.852-.258-.11-.59-.222-.85-.222-1.036 0-1.85.888-1.85 1.85 0 .74.444 1.37 1.147 1.702 1.37.63 3.145 1.036 5.328 1.036 3.96 0 6.586-2.553 6.586-5.81 0-2.7-1.48-4.365-3.923-5.18l-3.626-1.183c-.776-.258-1.516-.85-1.516-1.812 0-1.258 1-1.998 2.516-1.998 1.22 0 2.738.296 3.663.74.26.11.63.185.888.185 1 0 1.777-.814 1.777-1.776 0-.778-.48-1.444-1.22-1.74-1.222-.555-2.517-.925-5.033-.925-3.7 0-6.4 2.33-6.4 5.587 0 2.775 1.553 4.33 3.55 5.07l3.035 1.11z" fill="#9D9D9C"/></g></svg>
